<?xml version="1.0" encoding="UTF-8" standalone="no"?>
<!-- Created with Inkscape (http://www.inkscape.org/) -->

<svg
   width="811.85754"
   height="937.27197"
   viewBox="0 0 811.85754 937.27197"
   version="1.1"
   id="svg1"
   sodipodi:docname="Many.svg"
   inkscape:version="1.3 (0e150ed6c4, 2023-07-21)"
   xmlns:inkscape="http://www.inkscape.org/namespaces/inkscape"
   xmlns:sodipodi="http://sodipodi.sourceforge.net/DTD/sodipodi-0.dtd"
   xmlns="http://www.w3.org/2000/svg"
   xmlns:svg="http://www.w3.org/2000/svg">
  <sodipodi:namedview
     id="namedview1"
     pagecolor="#ffffff"
     bordercolor="#666666"
     borderopacity="1.0"
     inkscape:showpageshadow="2"
     inkscape:pageopacity="0.0"
     inkscape:pagecheckerboard="0"
     inkscape:deskcolor="#d1d1d1"
     inkscape:document-units="px"
     inkscape:zoom="0.077148438"
     inkscape:cx="233.31646"
     inkscape:cy="298.12658"
     inkscape:window-width="1920"
     inkscape:window-height="1044"
     inkscape:window-x="0"
     inkscape:window-y="36"
     inkscape:window-maximized="1"
     inkscape:current-layer="layer1"
     showguides="true">
    <sodipodi:guide
       position="-269.22676,613.90252"
       orientation="0,-1"
       id="guide57"
       inkscape:locked="false" />
  </sodipodi:namedview>
  <defs
     id="defs1" />
  <g
     inkscape:label="Layer 1"
     inkscape:groupmode="layer"
     id="layer1"
     transform="translate(-359.96094,-3953.9531)">
    <path
       id="path320"
       style="fill:#1d751d;fill-opacity:1;stroke:#000000;stroke-width:5;stroke-dasharray:none"
       d="m 763.54687,4422.6562 -78.48242,45.3106 v 2.5684 l -2.22461,-1.2832 -78.45117,45.2929 v 2.5684 90.5176 2.6269 l 78.375,45.25 2.30078,-1.3281 v 2.6562 l 78.36328,45.2422 2.34375,-1.3515 v 2.705 l 78.33204,45.2246 2.28125,-1.3164 v 2.6329 l -2.28125,-1.3165 -78.33204,45.2266 v 2.6758 l -2.31836,-1.3379 -78.38867,-45.2578 -2.28711,-1.3203 -78.38867,45.2578 v 2.5703 l 78.45117,45.293 2.22461,-1.2852 v 2.5703 l 78.44336,45.2891 2.26367,-1.3086 78.34961,-45.2344 2.26368,-1.3066 78.38671,-45.2578 2.26368,-1.3067 v -90.5293 l -2.26758,-1.3086 -78.38281,-45.2558 -2.29297,-1.3223 -78.32032,-45.2187 -2.34375,-1.3536 -78.36328,-45.2441 -2.28711,-1.3203 2.28711,-1.3184 78.38867,-45.2597 2.31836,-1.3379 v 2.6777 l 78.33204,45.2246 2.28125,-1.3164 78.42578,-45.2793 -78.42578,-45.2793 -2.22461,-1.2851 -78.38868,-45.2559 z m 241.92773,-139.6777 -78.43944,45.2871 v 2.5684 90.5156 2.6113 90.5157 2.5703 90.5722 2.6192 90.5371 2.6191 l 78.40034,45.2637 2.2637,-1.3066 78.4121,-45.2715 2.2637,-1.3067 78.4434,-45.289 -78.4434,-45.2891 -2.2246,-1.2832 -78.4512,45.293 v 2.6035 l -2.2558,-1.3027 2.2558,-1.3008 v -90.5879 l -2.2246,-1.2832 2.2246,-1.2852 78.3887,-45.2578 -78.3887,-45.2578 -2.2754,-1.3145 2.2754,-1.3144 v -90.4981 l -2.2754,-1.3144 2.2754,-1.3145 v 2.6289 l 78.375,45.25 2.3008,-1.33 78.3633,-45.2422 -78.3633,-45.2422 -2.2871,-1.3223 -78.3887,-45.2558 z m -403.31054,46.5039 -78.43945,-45.2871 -2.22461,-1.2851 -78.42578,45.2793 v 2.6328 l -2.28125,-1.3164 -78.33203,45.2265 v 2.7051 90.4375 2.7051 90.4511 2.6778 90.5137 2.5703 l 78.38867,45.2578 2.22461,-1.2852 v 2.5684 l 78.42578,45.2793 2.22461,-1.2852 78.38867,-45.2578 -78.38867,-45.2558 -2.26172,-1.3067 -78.38867,-45.2578 -2.22656,-1.2852 2.22656,-1.2851 v -90.5567 l -2.28125,-1.3164 2.28125,-1.3183 v -90.5098 l -2.29297,-1.3223 2.29297,-1.3242 78.38281,-45.2539 2.26758,-1.3086 v 2.6172 90.5391 l 78.4082,-45.2696 2.25586,-1.3027 v -90.5879 z m 161.28711,-279.3926 -78.38672,45.2579 v 2.6425 l -2.28711,-1.3203 -78.38867,45.2559 v 2.6289 l -2.27734,-1.3145 2.27734,-1.3144 v -90.5137 l -2.22656,-1.2851 -78.4375,45.2871 v 2.5703 90.5136 2.6133 90.5137 2.5703 l 78.43945,45.2871 2.22461,-1.2851 v -90.5157 l -2.27539,-1.3144 2.27539,-1.3125 v 2.6269 l 78.38867,45.2579 2.28711,-1.3204 v 2.6407 l 78.38867,45.2578 2.31836,-1.3379 v -90.4512 l -2.34375,-1.3515 -78.36328,-45.2442 -2.30078,-1.3281 2.30078,-1.3281 78.36328,-45.2442 2.34375,-1.3535 v -90.4492 z m 2.32031,-91.8066 v 90.4688 2.6777 90.4492 2.707 90.4375 2.7051 90.4512 2.6758 90.5156 l 78.38868,-45.2578 2.22461,-1.2852 78.42578,-45.2773 2.22461,-1.2852 78.43944,-45.2871 2.2246,-1.2851 v -90.586 l -2.2558,-1.3027 2.2558,-1.3027 v -90.543 l -2.2637,-1.3067 -78.40034,-45.2656 v 90.5313 2.6172 90.539 2.6172 l -2.26758,-1.3086 -78.38281,45.2539 v 2.6348 l -2.28125,-1.3164 2.28125,-1.3184 v -90.5078 l -2.29297,-1.3242 2.29297,-1.3242 v -90.5078 l -2.28125,-1.3184 2.28125,-1.3164 v -90.5137 l -2.26368,-1.3066 z"
       inkscape:export-filename="KU CSE good.svg"
       inkscape:export-xdpi="300"
       inkscape:export-ydpi="300" />
  </g>
</svg>
