<?xml version="1.0" encoding="UTF-8" standalone="no"?>
<!-- Created with Inkscape (http://www.inkscape.org/) by Kazi Rifat Morshed, 230220 KU CSE -->

<svg
   width="811.85736"
   height="937.13965"
   viewBox="0 0 811.85736 937.13965"
   version="1.1"
   id="svg1"
   sodipodi:docname="Many.svg"
   inkscape:version="1.3 (0e150ed6c4, 2023-07-21)"
   xmlns:inkscape="http://www.inkscape.org/namespaces/inkscape"
   xmlns:sodipodi="http://sodipodi.sourceforge.net/DTD/sodipodi-0.dtd"
   xmlns="http://www.w3.org/2000/svg"
   xmlns:svg="http://www.w3.org/2000/svg">
  <sodipodi:namedview
     id="namedview1"
     pagecolor="#ffffff"
     bordercolor="#666666"
     borderopacity="1.0"
     inkscape:showpageshadow="2"
     inkscape:pageopacity="0.0"
     inkscape:pagecheckerboard="0"
     inkscape:deskcolor="#d1d1d1"
     inkscape:document-units="px"
     inkscape:zoom="0.077148438"
     inkscape:cx="233.31646"
     inkscape:cy="298.12658"
     inkscape:window-width="1920"
     inkscape:window-height="1044"
     inkscape:window-x="0"
     inkscape:window-y="36"
     inkscape:window-maximized="1"
     inkscape:current-layer="layer1"
     showguides="true">
    <sodipodi:guide
       position="-828.90712,-1243.095"
       orientation="0,-1"
       id="guide57"
       inkscape:locked="false" />
  </sodipodi:namedview>
  <defs
     id="defs1" />
  <g
     inkscape:label="Layer 1"
     inkscape:groupmode="layer"
     id="layer1"
     transform="translate(-919.6413,-2096.9556)">
    <g
       id="g395"
       transform="translate(-1063.2022,-51.327055)"
       inkscape:export-filename="Since1991.svg"
       inkscape:export-xdpi="300"
       inkscape:export-ydpi="300"
       style="stroke-width:5;stroke-dasharray:none">
      <path
         style="fill:none;stroke:#000000;stroke-width:5;stroke-dasharray:none"
         d="m 2386.3903,2151.1699 -78.4433,45.289 v 2.5704 l -2.2246,-1.2852 -78.4512,45.293 v 2.5722 90.5137 l 78.3867,-45.2578 2.2891,-1.3203 v 2.6426 l 78.3632,45.2421 2.3438,-1.3535 v 2.7071 l 78.3203,45.2187 2.293,-1.3242 78.3847,-45.2559 2.2657,-1.3086 v 2.6172 l 78.4101,45.2696 2.2539,-1.3008 78.4121,-45.2715 -78.4121,-45.2715 -2.2636,-1.3066 -78.4004,-45.2657 -2.2637,-1.3066 -78.3867,-45.2578 -2.2637,-1.3067 -78.3496,-45.2343 z"
         id="path395" />
      <path
         style="fill:none;stroke:#000000;stroke-width:5;stroke-dasharray:none"
         d="m 2307.947,2385.3281 v 90.4883 2.6386 90.5176 2.5684 l -2.2246,-1.2852 -78.4512,-45.293 -2.2246,-1.2851 -78.4395,45.2871 v 2.6172 l -2.2676,-1.3086 -78.3828,45.2559 v 2.6464 90.5098 2.6348 90.5566 2.5703 90.5156 2.5684 l 78.4239,45.2793 2.2265,-1.2871 v -90.5137 l -2.2617,-1.3047 2.2617,-1.3066 v 2.6113 l 78.3867,45.2578 2.2774,-1.3144 v -90.4981 l -2.2754,-1.3144 -78.3887,-45.2578 -2.2265,-1.2852 2.2265,-1.2851 v -90.5723 l -2.2676,-1.3106 2.2676,-1.3086 78.4082,-45.2695 2.2559,-1.3008 v 2.6036 l 78.4512,45.2929 2.2246,-1.2832 v 2.5684 90.5176 2.6386 90.4864 2.6582 90.4843 2.6426 l -2.2871,-1.3223 -78.3887,45.2579 v 2.5722 l 78.4512,45.293 2.2246,-1.2852 v 2.5703 l 78.4433,45.2891 2.2637,-1.3086 78.3496,-45.2344 -78.3496,-45.2363 -2.3164,-1.3379 2.3164,-1.3379 v -90.4511 l -2.3438,-1.3536 2.3438,-1.3535 v 2.7071 l 78.334,45.2246 2.2793,-1.3145 78.3847,-45.2558 2.2657,-1.3086 v -90.5411 l -2.2676,-1.3085 -78.3828,45.2539 v 2.6484 l -2.293,-1.3242 -78.3203,-45.2168 -2.3438,-1.3535 2.3438,-1.3535 v -90.4512 l -2.3164,-1.3379 2.3164,-1.3379 78.3887,-45.2578 2.2246,-1.2832 78.3887,-45.2578 2.2617,-1.3067 v 2.6114 l 78.3886,45.2578 2.2754,-1.3145 v 2.6289 90.5137 2.5703 90.5879 2.6035 90.543 l 78.4141,-45.2715 2.2637,-1.3066 v -90.5782 l -2.2246,-1.2851 2.2246,-1.2832 v -90.5157 l -2.2891,-1.3203 2.2891,-1.3222 v -90.4844 l -2.3028,-1.3301 -78.375,-45.248 -2.2754,-1.3145 -78.3886,-45.2578 -2.2246,-1.2852 -78.4258,-45.2792 -2.2813,-1.3165 -78.332,45.2247 v 2.6777 l -2.3184,-1.3379 2.3184,-1.3398 v -90.4493 l -2.3438,-1.3535 z"
         id="path394" />
      <path
         style="fill:none;stroke:#000000;stroke-width:5;stroke-dasharray:none"
         d="m 2791.9255,2571.6113 -2.3047,-1.3301 -78.3613,45.2422 v 2.6582 l 78.3613,45.2422 2.3047,-1.3301 z"
         id="path393" />
      <path
         style="fill:none;stroke:#000000;stroke-width:5;stroke-dasharray:none"
         d="m 2791.9255,2478.4531 -2.2774,-1.3145 -78.3886,45.2578 v 2.6426 l 78.3613,45.2422 2.3047,-1.332 z"
         id="path392" />
      <path
         style="fill:none;stroke:#000000;stroke-width:5;stroke-dasharray:none"
         d="m 2789.7009,2384.0234 -78.4414,45.2871 v 2.5703 l 78.3886,45.2578 2.2774,-1.3144 v -90.5176 z"
         id="path391" />
      <path
         style="fill:none;stroke:#000000;stroke-width:5;stroke-dasharray:none"
         d="m 2630.5817,2478.4609 -2.2265,-1.2852 z"
         id="path390"
         sodipodi:nodetypes="ccc" />
      <path
         style="fill:none;stroke:#000000;stroke-width:5;stroke-dasharray:none"
         d="m 2549.9177,2431.8886 78.4375,45.2871 2.2265,-1.2851 v -90.5879 l -2.2539,-1.3027 -78.4101,45.2695 z"
         id="path389" />
      <path
         style="fill:none;stroke:#000000;stroke-width:5;stroke-dasharray:none"
         d="m 1985.3435,2662.0703 78.3203,-45.2168 -78.3203,-45.2188 z"
         id="path388" />
      <path
         style="fill:none;stroke:#000000;stroke-width:5;stroke-dasharray:none"
         d="m 1985.3435,2568.9277 78.332,-45.2266 -78.332,-45.2246 z"
         id="path387" />
      <path
         style="fill:none;stroke:#000000;stroke-width:5;stroke-dasharray:none"
         d="m 2065.9567,2431.8281 78.4258,45.2793 2.2246,-1.2852 v -90.5156 l -2.2617,-1.3066 -78.3887,45.2578 z"
         id="path386" />
      <path
         style="fill:none;stroke:#000000;stroke-width:5;stroke-dasharray:none"
         d="m 2144.3825,2290.8945 -78.4258,45.2793 v 2.5683 l 78.3887,45.2579 2.2617,-1.3067 78.3887,-45.2558 -78.3887,-45.2579 z"
         id="path385" />
      <path
         style="fill:#ffffff;stroke:#000000;stroke-width:5;stroke-dasharray:none"
         d="m 2708.9938,2337.4277 -78.4121,45.2715 v 2.6035 90.5879 2.5703 90.5137 2.6289 l 78.375,45.248 2.3028,-1.3281 78.3613,-45.2422 -78.3613,-45.2422 -2.2891,-1.3222 2.2891,-1.3204 78.3886,-45.2578 -78.3886,-45.2578 -2.2266,-1.2851 2.2266,-1.2852 78.4414,-45.2871 -78.4414,-45.2891 z"
         id="path384" />
      <path
         style="fill:#ffffff;stroke:#000000;stroke-width:5;stroke-dasharray:none"
         d="m 2305.6579,2290.8652 -78.3867,45.2578 v 2.627 90.5 2.6269 90.5176 2.5683 l 78.4512,45.293 2.2246,-1.2832 v -90.5176 l -2.2871,-1.3183 2.2871,-1.3203 v -90.4883 l -2.3008,-1.3281 2.3008,-1.3282 v 2.6563 l 78.3632,45.2441 2.3438,-1.3535 v 2.707 90.4493 l 78.332,-45.2247 2.2813,-1.3164 v -90.5078 l -2.293,-1.3242 -78.3203,-45.2187 -2.3438,-1.3536 -78.3632,-45.2421 z"
         id="path383" />
      <path
         style="fill:#ffffff;stroke:#000000;stroke-width:5;stroke-dasharray:none"
         d="m 2547.652,2337.4218 -78.3847,45.2559 v 2.6484 90.5078 2.6329 l 78.4258,45.2792 2.2246,-1.2851 78.4375,-45.2852 -78.4375,-45.2871 -2.2676,-1.3086 2.2676,-1.3105 78.4101,-45.2695 -78.4101,-45.2696 z"
         id="path382" />
      <path
         style="fill:#ffffff;stroke:#000000;stroke-width:5;stroke-dasharray:none"
         d="m 2146.6071,2289.6093 v 2.5703 l 78.3887,45.2579 2.2754,-1.3145 v -90.5137 l -2.2266,-1.2851 z"
         id="path381" />
      <path
         style="fill:#ffffff;stroke:#000000;stroke-width:5;stroke-dasharray:none"
         d="m 2224.9958,2337.4375 -78.3887,45.2558 v 2.6133 90.5156 2.5684 90.5742 l 78.4395,-45.2871 2.2246,-1.2832 v -90.5176 l -2.2754,-1.3125 2.2754,-1.3144 v -90.5 z"
         id="path380" />
      <path
         style="fill:#ffffff;stroke:#000000;stroke-width:5;stroke-dasharray:none"
         d="m 2547.656,2616.8535 -78.3887,45.2578 v 2.5683 l -2.2246,-1.2851 -78.3887,45.2578 v 2.6758 90.4512 2.707 l 78.3203,45.2168 2.293,-1.3242 78.3828,-45.2539 2.2676,-1.3086 v 2.6171 90.5411 2.6172 l -2.2657,-1.3086 -78.3847,45.2558 v 2.6309 l -2.2793,-1.3164 -78.334,-45.2246 v 90.4511 2.6758 l 78.3496,45.2363 2.2637,-1.3066 78.3867,-45.2578 2.2637,-1.3067 78.4004,-45.2656 2.2636,-1.3066 v -90.543 l -2.2539,-1.3008 2.2539,-1.3027 v -90.5879 l -2.2246,-1.2851 2.2246,-1.2852 v -90.5137 l -2.2754,-1.3144 -78.3886,-45.2578 z"
         id="path379" />
      <path
         style="fill:#ffffff;stroke:#000000;stroke-width:5;stroke-dasharray:none"
         d="m 2225.0153,2616.8535 -78.4082,45.2695 v 2.6192 90.5723 2.5703 l 78.3887,45.2578 2.2754,-1.3125 v 2.6269 90.4981 2.6289 l -2.2774,-1.3145 -78.3867,-45.2578 v 90.5137 2.5723 l 78.4375,45.2851 2.2266,-1.2851 78.3887,-45.2579 2.2871,-1.3203 v -90.4843 l -2.3028,-1.3301 2.3028,-1.3281 v -90.4864 l -2.2871,-1.3203 2.2871,-1.3183 v -90.5176 l -2.2246,-1.2852 -78.4512,-45.2929 z"
         id="path378" />
      <path
         style="fill:#ffffff;stroke:#000000;stroke-width:5;stroke-dasharray:none"
         d="m 2063.7321,2337.459 -78.3886,45.2578 v 2.5703 90.5137 2.6777 l 78.332,45.2246 2.2812,-1.3164 v 2.6348 l -2.2812,-1.3184 -78.332,45.2266 v 2.707 l 78.3203,45.2188 2.2929,-1.3242 78.3828,-45.2559 2.2676,-1.3086 v -90.5742 l -2.2246,-1.2832 -78.4258,-45.2793 -2.2265,-1.2852 2.2265,-1.2851 78.3887,-45.2578 -78.3887,-45.2579 z"
         id="path377" />
      <path
         style="fill:#ffffff;stroke:#000000;stroke-width:5;stroke-dasharray:none"
         d="m 2063.6641,2616.8555 -78.3203,45.2168 v 2.707 90.4492 2.6778 90.5156 2.5703 l 78.3886,45.2578 2.2246,-1.2852 v -90.5156 l -2.2246,-1.2851 2.2246,-1.2852 v -90.5566 l -2.2812,-1.3184 2.2812,-1.3164 v -90.5098 z"
         id="path376" />
      <path
         style="fill:#ffffff;stroke:#000000;stroke-width:5;stroke-dasharray:none"
         d="m 2711.2598,2618.1836 v 90.4844 2.6425 90.5157 2.5683 90.5782 l 78.4433,-45.2891 2.2227,-1.2832 v -90.5176 l -2.2774,-1.3144 2.2774,-1.3145 v -90.498 l -2.3047,-1.3301 z"
         id="path356" />
    </g>
  </g>
</svg>
